<svg width="22" height="22" viewBox="0 0 22 22" fill="none" xmlns="http://www.w3.org/2000/svg">
<g >
<path  fill-rule="evenodd" clip-rule="evenodd" d="M11.75 7.32727C11.75 6.91306 11.4142 6.57727 11 6.57727C10.5858 6.57727 10.25 6.91306 10.25 7.32727V10.2405H7.33333C6.91911 10.2405 6.58333 10.5763 6.58333 10.9905C6.58333 11.4047 6.91911 11.7405 7.33333 11.7405H10.25V14.6536C10.25 15.0678 10.5858 15.4036 11 15.4036C11.4142 15.4036 11.75 15.0678 11.75 14.6536V11.7405H14.6667C15.0809 11.7405 15.4167 11.4047 15.4167 10.9905C15.4167 10.5763 15.0809 10.2405 14.6667 10.2405H11.75V7.32727Z" fill="#1B1D21"/>
<path fill-rule="evenodd" clip-rule="evenodd" d="M15.6857 1H6.31429C3.04762 1 1 3.31208 1 6.58516V15.4148C1 18.6879 3.0381 21 6.31429 21H15.6857C18.9619 21 21 18.6879 21 15.4148V6.58516C21 3.31208 18.9619 1 15.6857 1Z" stroke="#1B1D21" stroke-width="1.5" stroke-linecap="round" stroke-linejoin="round"/>
</g>
</svg>
