<?xml version="1.0" encoding="utf-8"?>
<!-- Generator: Adobe Illustrator 24.0.1, SVG Export Plug-In . SVG Version: 6.00 Build 0)  -->
<svg version="1.1" id="Layer_1" xmlns="http://www.w3.org/2000/svg" xmlns:xlink="http://www.w3.org/1999/xlink" x="0px" y="0px"
	 viewBox="0 0 178.7 40" style="enable-background:new 0 0 178.7 40;" xml:space="preserve">
<title>logo</title>
<g>
	<path d="M40.3,31.6v-8.3L32,9.1h8l3.9,7.7l3.9-7.7h7.8l-8.1,14.2v8.3C47.5,31.6,40.3,31.6,40.3,31.6z"/>
	<path d="M71.1,15v16.6h-6v-2.4c-0.8,1-1.6,1.7-2.6,2.2s-2,0.7-3.2,0.7c-1,0-1.9-0.2-2.7-0.5s-1.5-0.8-2-1.5c-0.5-0.6-0.8-1.3-1-2.2
		s-0.3-2.3-0.3-4.3V15h6.6v8.6c0,1.3,0.2,2.1,0.5,2.6s0.9,0.7,1.7,0.7s1.4-0.3,1.9-0.8c0.4-0.6,0.6-1.4,0.6-2.5V15H71.1z"/>
	<path d="M73.1,31.6V15h6v2.4c0.7-1,1.6-1.7,2.5-2.2s2-0.7,3.2-0.7c1.1,0,2,0.2,2.8,0.7s1.5,1.2,2.1,2.2c0.8-1,1.7-1.7,2.6-2.2
		c1-0.5,2-0.7,3.2-0.7c2,0,3.5,0.5,4.6,1.5s1.6,2.4,1.6,4.3v11.3h-6.5v-8.9c0-1-0.2-1.8-0.5-2.3c-0.4-0.5-0.9-0.7-1.7-0.7
		c-0.8,0-1.4,0.2-1.8,0.7s-0.6,1.3-0.6,2.3v8.8h-6.5v-8.7c0-1.1-0.2-2-0.5-2.5c-0.4-0.5-1-0.7-1.8-0.7c-0.7,0-1.3,0.2-1.7,0.8
		c-0.4,0.5-0.6,1.2-0.6,2.2v8.9h-6.4V31.6z"/>
	<path d="M103.7,31.6V15h6v2.4c0.8-1,1.6-1.7,2.6-2.2s2-0.7,3.2-0.7c1,0,1.9,0.2,2.7,0.5s1.5,0.8,2,1.5c0.5,0.6,0.9,1.3,1.1,2.2
		s0.3,2.3,0.3,4.2v8.6H115V23c0-1.3-0.2-2.1-0.5-2.6s-0.9-0.7-1.7-0.7c-0.8,0-1.5,0.3-1.9,0.8c-0.4,0.6-0.6,1.4-0.6,2.5v8.6
		C110.3,31.6,103.7,31.6,103.7,31.6z"/>
	<path d="M135.3,31.6l-0.4-1.6c-0.8,0.7-1.8,1.3-2.7,1.7c-1,0.4-2.1,0.5-3.3,0.5c-1.9,0-3.3-0.5-4.4-1.4s-1.5-2.2-1.5-3.9
		c0-1.6,0.5-2.9,1.5-3.6c1-0.8,2.9-1.4,5.7-1.7c0.4-0.1,0.8-0.1,1.4-0.2c2.1-0.2,3.1-0.8,3.1-1.6c0-0.5-0.2-0.8-0.6-1
		c-0.4-0.2-1-0.3-1.8-0.3c-0.7,0-1.2,0.1-1.6,0.4c-0.4,0.3-0.6,0.7-0.6,1.2h-6.5c0-1.9,0.8-3.3,2.3-4.2c1.5-1,3.7-1.4,6.6-1.4
		c1.4,0,2.6,0.1,3.8,0.4c1.2,0.3,2.1,0.6,2.7,1c0.8,0.5,1.3,1.1,1.7,1.8c0.3,0.7,0.5,1.6,0.5,2.9v9.3c0,0.3,0.1,0.6,0.2,0.8
		c0.1,0.2,0.3,0.4,0.5,0.6v0.5h-6.6V31.6z M134.7,24.2c-0.6,0.2-1.5,0.5-2.5,0.8c-1.7,0.4-2.5,1-2.5,1.8c0,0.5,0.2,0.8,0.5,1.1
		c0.3,0.3,0.8,0.4,1.4,0.4c1.1,0,1.9-0.3,2.4-0.8s0.8-1.3,0.8-2.4c0-0.2,0-0.4,0-0.5S134.7,24.3,134.7,24.2z"/>
</g>
<rect x="143.3" y="25.6" width="6" height="6"/>
</svg>
